<svg width="43" height="48" viewBox="0 0 43 48" fill="none" xmlns="http://www.w3.org/2000/svg">
<g clip-path="url(#clip0_121_19)">
<path d="M42.3527 31.7647C42.3527 33.3177 41.3645 35.2941 39.9527 36.1412L23.4351 47.153C22.1645 48 20.0468 48 18.7762 47.153L2.39976 36.1412C0.987991 35.2941 -0.000244141 33.3177 -0.000244141 31.7647V16.2353C-0.000244141 14.6824 0.987991 12.7059 2.39976 11.8589L18.9174 0.847086C20.188 2.72726e-05 22.3056 2.72726e-05 23.5762 0.847086L40.0939 11.8589C41.3645 12.7059 42.4939 14.6824 42.4939 16.2353V31.7647H42.3527Z" fill="#72BF40"/>
<path d="M12.7056 14.1177H29.6468V18.353H12.7056V14.1177ZM8.47034 21.1765H33.8821V25.4118H8.47034V21.1765ZM4.23505 28.2353H38.1174V32.4706H4.23505V28.2353Z" fill="white"/>
</g>
<defs>
<clipPath id="clip0_121_19">
<rect width="42.353" height="48" fill="white"/>
</clipPath>
</defs>
</svg>
