<svg width="12" height="13" viewBox="0 0 12 13" fill="none" xmlns="http://www.w3.org/2000/svg">
<path d="M5.63406 0.958075C5.78375 0.640278 6.21625 0.640277 6.36594 0.958074L7.9039 4.22326C7.96335 4.34945 8.07825 4.43692 8.21116 4.45716L11.6502 4.98076C11.9849 5.03172 12.1185 5.46271 11.8763 5.71008L9.38784 8.25167C9.29166 8.3499 9.24777 8.49143 9.27048 8.63013L9.85793 12.2189C9.9151 12.5682 9.5652 12.8346 9.26583 12.6697L6.1899 10.9753C6.07101 10.9098 5.92899 10.9098 5.8101 10.9753L2.73417 12.6697C2.4348 12.8346 2.0849 12.5682 2.14207 12.2189L2.72952 8.63013C2.75223 8.49143 2.70834 8.3499 2.61216 8.25167L0.123681 5.71008C-0.11852 5.46271 0.0151288 5.03172 0.349843 4.98076L3.78884 4.45716C3.92175 4.43692 4.03665 4.34945 4.0961 4.22326L5.63406 0.958075Z" fill="#FFDB5B"/>
</svg>
