<svg width="18" height="18" viewBox="0 0 18 18" fill="none" xmlns="http://www.w3.org/2000/svg">
<path d="M3.7501 10.5H13.6019C14.3615 10.5 14.7413 10.5 15.0437 10.3584C15.31 10.2336 15.5338 10.0333 15.6872 9.78237C15.8614 9.49749 15.9033 9.12 15.9872 8.36504L16.426 4.41626C16.4516 4.18566 16.4644 4.07036 16.4273 3.98112C16.3948 3.90274 16.3366 3.83773 16.2623 3.79671C16.1777 3.75 16.0617 3.75 15.8296 3.75H3.3751M1.5 1.5H2.43633C2.6348 1.5 2.73403 1.5 2.81167 1.53774C2.88001 1.57097 2.93665 1.62418 2.97408 1.69032C3.01659 1.76545 3.02278 1.86449 3.03516 2.06257L3.71484 12.9374C3.72722 13.1355 3.73341 13.2345 3.77592 13.3097C3.81335 13.3758 3.86999 13.429 3.93833 13.4623C4.01597 13.5 4.1152 13.5 4.31367 13.5H14.25M5.625 16.125H5.6325M12.375 16.125H12.3825M6 16.125C6 16.3321 5.83211 16.5 5.625 16.5C5.41789 16.5 5.25 16.3321 5.25 16.125C5.25 15.9179 5.41789 15.75 5.625 15.75C5.83211 15.75 6 15.9179 6 16.125ZM12.75 16.125C12.75 16.3321 12.5821 16.5 12.375 16.5C12.1679 16.5 12 16.3321 12 16.125C12 15.9179 12.1679 15.75 12.375 15.75C12.5821 15.75 12.75 15.9179 12.75 16.125Z" stroke="white" stroke-linecap="round" stroke-linejoin="round"/>
</svg>
