<svg width="30" height="30" viewBox="0 0 30 30" fill="none" xmlns="http://www.w3.org/2000/svg">
<path d="M11.12 10.9993C11.4335 10.1082 12.0522 9.35683 12.8666 8.87819C13.681 8.39956 14.6385 8.2246 15.5696 8.3843C16.5006 8.544 17.3451 9.02805 17.9534 9.75072C18.5618 10.4734 18.8947 11.388 18.8933 12.3327C18.8933 14.9993 14.8933 16.3327 14.8933 16.3327M15 21.666H15.0133M28.3333 14.9993C28.3333 22.3631 22.3638 28.3327 15 28.3327C7.63619 28.3327 1.66666 22.3631 1.66666 14.9993C1.66666 7.63555 7.63619 1.66602 15 1.66602C22.3638 1.66602 28.3333 7.63555 28.3333 14.9993Z" stroke="#C91F28" stroke-width="2" stroke-linecap="round" stroke-linejoin="round"/>
</svg>
